<svg width="86.667" height="105.333" viewBox="0 0 86.667 105.333" xmlns="http://www.w3.org/2000/svg"><g id="svgGroup" stroke-linecap="round" fill-rule="evenodd" font-size="9pt" stroke="#111111" stroke-width="0.2mm" fill="#222222" style="stroke:#111111;stroke-width:0.2mm;fill:#222222"><path d="M 48.533 0 L 48.8 0 A 17.854 17.854 0 0 1 48.876 1.169 Q 48.946 3.224 48.626 5.928 A 50.224 50.224 0 0 1 48.533 6.667 L 48.8 7.733 Q 51.2 7.467 54.133 5.867 L 54.933 5.867 Q 91.2 28 52 52 L 49.067 53.867 A 11.28 11.28 0 0 1 47.6 54.6 Q 46.8 54.933 45.867 55.2 A 21.141 21.141 0 0 1 44.611 55.979 Q 43.974 56.341 43.386 56.607 A 11.25 11.25 0 0 1 42.933 56.8 L 42.133 57.6 Q 41.446 60.121 41.349 63.429 A 37.802 37.802 0 0 0 41.333 64.533 L 40.8 67.733 Q 40.553 68.97 40.535 69.748 A 5.157 5.157 0 0 0 40.533 69.867 L 40.533 71.2 L 40.267 72.267 Q 39.733 74.133 39.733 76.533 L 39.2 78.933 L 38.933 80.8 L 38.667 82.4 L 38.4 84 A 1.401 1.401 0 0 1 38.343 84.379 Q 38.242 84.735 37.966 85.18 A 5.772 5.772 0 0 1 37.867 85.333 A 23.068 23.068 0 0 1 37.97 83.244 Q 38.154 81.229 38.667 78.667 L 38.667 76.8 L 38.933 76 L 38.933 73.333 L 39.2 72.267 A 84.275 84.275 0 0 0 39.352 70.376 Q 39.409 69.534 39.438 68.807 A 34.157 34.157 0 0 0 39.467 67.467 L 39.467 66.667 A 0.488 0.488 0 0 0 39.567 66.483 Q 39.728 66.023 39.733 64.633 A 25.234 25.234 0 0 0 39.733 64.533 L 40 63.2 L 40.267 59.733 Q 40.533 58.933 40 58.4 L 37.333 60 A 34.638 34.638 0 0 1 25.737 84.301 A 48.231 48.231 0 0 1 22.667 86.933 Q 24.8 87.467 27.467 86.933 L 29.333 87.467 A 1.107 1.107 0 0 1 29.583 87.38 Q 30.023 87.28 30.784 87.394 A 8.563 8.563 0 0 1 31.2 87.467 L 35.733 88.533 A 8.713 8.713 0 0 0 37.209 89.312 Q 37.964 89.627 38.865 89.869 A 17.979 17.979 0 0 0 40 90.133 L 50.667 93.867 A 14.169 14.169 0 0 0 53.346 95.037 A 17.491 17.491 0 0 0 54.933 95.467 L 64 98.4 L 67.2 99.2 L 73.867 99.467 A 19.42 19.42 0 0 0 80.398 95.246 Q 85.339 90.268 85.339 81.667 A 30.611 30.611 0 0 0 85.333 81.067 A 9.817 9.817 0 0 0 84.29 79.067 Q 83.723 78.217 82.943 77.367 A 18.144 18.144 0 0 0 82.4 76.8 Q 81.867 76.267 82.4 76 A 11.788 11.788 0 0 1 84.516 78.076 Q 85.383 79.158 86.133 80.533 L 86.133 88.8 L 86.667 89.333 L 85.867 91.733 L 86.4 93.067 Q 85.067 94.667 83.2 95.733 L 82.667 96.267 L 81.067 97.067 L 80.533 97.6 L 78.933 98.4 L 77.6 99.2 L 72 102.4 L 71.467 102.933 L 69.867 103.733 L 69.067 104 Q 68.804 104.263 67.242 104.786 A 33.31 33.31 0 0 1 67.2 104.8 Q 64.8 104.8 61.333 105.333 L 55.733 105.067 A 4.328 4.328 0 0 0 54.826 104.743 Q 54.371 104.632 53.828 104.579 A 10.777 10.777 0 0 0 52.8 104.533 L 49.6 103.467 L 48.533 103.2 L 47.2 102.4 A 3.723 3.723 0 0 1 46.404 102.305 Q 45.638 102.137 44.673 101.669 A 13.008 13.008 0 0 1 44.533 101.6 L 38.667 99.467 L 37.6 99.2 L 36.533 98.933 L 33.867 97.867 A 10.613 10.613 0 0 1 32.679 97.591 Q 31.448 97.236 29.87 96.535 A 28.059 28.059 0 0 1 29.867 96.533 L 29.067 96.533 A 20.045 20.045 0 0 1 27.133 95.867 Q 26.137 95.468 25.075 94.937 A 30.312 30.312 0 0 1 25.067 94.933 L 19.733 93.6 L 16.267 93.333 A 12.426 12.426 0 0 1 15.095 93.506 Q 14.52 93.565 13.871 93.587 A 23.723 23.723 0 0 1 13.067 93.6 L 11.2 94.133 L 10.133 94.133 Q 8.533 94.933 5.6 95.467 L 4.8 95.733 Q 3.575 95.938 2.037 96.454 A 29.868 29.868 0 0 0 1.067 96.8 L 0 96.533 Q 1.393 95.936 3.379 95.488 A 34.428 34.428 0 0 1 4.8 95.2 Q 5.6 94.667 6.933 94.4 L 8.533 93.6 L 10.4 92.8 A 18.861 18.861 0 0 0 12.938 91.466 A 22.745 22.745 0 0 0 14.133 90.667 Q 14.933 90.4 16.267 89.6 A 51.133 51.133 0 0 0 18.533 88.267 A 39.049 39.049 0 0 0 20.533 86.933 L 22.933 84.267 L 25.067 78.4 A 18.879 18.879 0 0 0 25.331 77.335 Q 25.681 75.764 26.121 73.002 A 194.089 194.089 0 0 0 26.4 71.2 L 26.667 69.6 L 26.933 68 L 26.933 65.867 L 26.667 65.333 A 7.447 7.447 0 0 0 24.692 65.967 A 9.781 9.781 0 0 0 23.467 66.667 L 21.867 67.2 L 21.6 66.667 A 12.491 12.491 0 0 0 23.73 65.9 Q 28.164 63.784 26.4 58.933 A 8.235 8.235 0 0 0 25.038 55.951 Q 23.142 53.425 19.2 53.067 L 19.2 52.267 L 20.8 50.933 Q 21.867 50.667 22.667 49.6 L 25.333 48.267 Q 26.621 46.979 27.563 45.864 A 25.574 25.574 0 0 0 28 45.333 L 28.267 43.733 L 28.533 41.867 L 28.8 41.067 L 29.067 38.133 L 29.333 34.933 L 29.6 32.8 L 30.4 30.4 A 7.901 7.901 0 0 1 30.532 29.012 Q 30.653 28.338 30.883 27.59 A 16.464 16.464 0 0 1 31.2 26.667 L 31.467 25.333 L 32.8 21.067 L 33.067 20.533 Q 33.789 19.57 35.165 18.171 A 51.081 51.081 0 0 1 35.467 17.867 L 36.8 15.733 L 37.867 14.4 L 42.4 11.2 L 44 10.667 L 46.667 8.8 A 12.677 12.677 0 0 0 47.002 7.574 Q 47.147 6.929 47.263 6.168 A 31.773 31.773 0 0 0 47.467 4.533 L 48 2.933 L 48 2.133 L 48.533 0 Z M 48.267 15.467 L 47.2 18.133 L 46.133 24.8 L 45.867 26.667 L 45.867 27.733 L 45.333 30.4 Q 45.134 31.196 45.084 32.289 A 16.871 16.871 0 0 0 45.067 33.067 L 44.8 36.533 L 44.533 39.467 L 44.267 40.533 L 43.733 43.733 L 43.733 45.333 L 43.467 47.2 L 42.933 49.067 A 6.658 6.658 0 0 1 43.022 50.163 Q 43.022 50.867 42.883 51.617 A 9.9 9.9 0 0 1 42.667 52.533 L 42.4 54.933 Q 42.133 55.2 42.4 56 Q 44.533 55.467 46.667 53.867 Q 76.98 36.831 51.748 17.912 A 71.748 71.748 0 0 0 48.267 15.467 Z M 46.133 17.067 L 46.133 14.933 A 2.435 2.435 0 0 0 44.584 13.478 A 3.68 3.68 0 0 0 44 13.333 Q 42.667 15.733 42.133 18.933 A 13.291 13.291 0 0 1 41.957 21.015 Q 41.7 22.633 41.067 24.533 L 40.8 26.667 Q 40.8 27.691 40.642 28.244 A 1.681 1.681 0 0 1 40.533 28.533 A 7.832 7.832 0 0 1 40.4 29.933 Q 40.267 30.667 40 31.467 Q 40 33.333 39.467 36 L 39.467 37.333 L 38.933 38.667 Q 39.2 40 38.933 42.133 L 38.667 43.467 L 38.4 49.067 L 38.133 52 L 37.867 54.933 Q 37.333 57.067 37.867 58.667 L 40.8 57.067 L 41.867 50.4 L 41.867 49.333 L 42.133 48 Q 42.133 46.746 42.374 45.01 A 43.779 43.779 0 0 1 42.667 43.2 L 42.667 42.4 L 43.2 37.067 L 43.467 35.2 Q 43.721 32.91 44.461 29.162 A 154.664 154.664 0 0 1 44.533 28.8 L 44.533 28 L 45.067 25.067 A 37.872 37.872 0 0 1 45.2 24.2 Q 45.4 23 45.6 22.4 L 46.133 17.067 Z"/></g></svg>